<svg xmlns="http://www.w3.org/2000/svg" aria-labelledby="title desc" preserveAspectRatio="xMidYMid meet" role="img" viewBox="0 0 960 280"><title id="title">튜북</title><desc id="desc">튜북로그</desc><style>:root{--brand1:#E50914;--brand2:#B20710;--mono:#141414}.bg{fill:transparent}.page-left{fill:var(--brand1)}.page-right{fill:var(--brand2)}.spine{fill:#fff;opacity:.95}.word{fill:var(--mono);font-family:&quot;Inter&quot;,&quot;Poppins&quot;,&quot;Noto Sans KR&quot;,&quot;Apple SD Gothic Neo&quot;,sans-serif;font-weight:700}</style><g id="icon" transform="translate(64,40)"><rect width="176" height="176" class="bg" rx="24"/><path d="M12 26c0-10 8-18 18-18h60c9.5 0 18 8 18 18v124c0 8.8-7.2 16-16 16H30c-11 0-18-6.5-18-18V26z" class="page-left"/><path d="M164 26c0-10-8-18-18-18H86c-9.5 0-18 8-18 18v124c0 8.8 7.2 16 16 16h96c11 0 18-6.5 18-18V26z" class="page-right"/><path d="M94 20c6 0 10 4.5 10 10v116c0 5.5-4 10-10 10s-10-4.5-10-10V30c0-5.5 4-10 10-10z" class="spine"/></g><g id="wordmark"><text x="0" y="0" class="word" font-size="96" text-rendering="geometricPrecision" transform="translate(280,170)">튜북</text></g></svg>