<svg xmlns="http://www.w3.org/2000/svg" width="1500" height="500" aria-labelledby="title desc" preserveAspectRatio="xMidYMid meet" role="img" viewBox="0 0 1500 500"><title id="title">tubook OG 이미지</title><desc id="desc">1500x500 Open Graph 최적화 tubook 로고 (투명 배경)</desc><style>:root{--brand1:#E50914;--brand2:#B20710;--mono:#000000}.page-left{fill:var(--brand1)}.page-right{fill:var(--brand2)}.spine{fill:#fff;opacity:.95}.word{fill:var(--mono);font-family:&quot;Inter&quot;,&quot;Poppins&quot;,&quot;Noto Sans KR&quot;,&quot;Apple SD Gothic Neo&quot;,sans-serif;font-weight:700;font-size:96px;text-rendering:geometricPrecision}</style><g id="icon"><path d="M12 26c0-10 8-18 18-18h60c9.5 0 18 8 18 18v124c0 8.8-7.2 16-16 16H30c-11 0-18-6.5-18-18V26z" class="page-left" transform="translate(120,215)"/><path d="M164 26c0-10-8-18-18-18H86c-9.5 0-18 8-18 18v124c0 8.8 7.2 16 16 16h96c11 0 18-6.5 18-18V26z" class="page-right" transform="translate(120,215)"/><path d="M94 20c6 0 10 4.5 10 10v116c0 5.5-4 10-10 10s-10-4.5-10-10V30c0-5.5 4-10 10-10z" class="spine" transform="translate(120,215)"/></g><g id="wordmark"><text x="0" y="0" class="word" dominant-baseline="middle" text-anchor="start" transform="translate(360,315)">Tubook</text></g></svg>